{"buffers":[{"uri":"FinalCar.bin","byteLength":5156808}],"asset":{"version":"2.0","generator":"gltfpack 0.16"},"bufferViews":[{"buffer":0,"byteOffset":0,"byteLength":1851768,"byteStride":12,"target":34962},{"buffer":0,"byteOffset":1851768,"byteLength":1851768,"byteStride":12,"target":34962},{"buffer":0,"byteOffset":3703536,"byteLength":1453272,"target":34963}],"accessors":[{"bufferView":0,"byteOffset":0,"componentType":5126,"count":23205,"type":"VEC3","min":[-3.04999995,-0.040404398,-3.20000005],"max":[3.04999995,4.40240049,14]},{"bufferView":1,"byteOffset":0,"componentType":5126,"count":23205,"type":"VEC3"},{"bufferView":2,"byteOffset":0,"componentType":5123,"count":117720,"type":"SCALAR"},{"bufferView":0,"byteOffset":278460,"componentType":5126,"count":24,"type":"VEC3","min":[-2,1.39999998,2.96269894],"max":[2,2.20000005,8.96269894]},{"bufferView":1,"byteOffset":278460,"componentType":5126,"count":24,"type":"VEC3"},{"bufferView":2,"byteOffset":235440,"componentType":5123,"count":36,"type":"SCALAR"},{"bufferView":0,"byteOffset":278748,"componentType":5126,"count":6330,"type":"VEC3","min":[0.699999988,0.00962130073,10.2001038],"max":[2.0999999,2.20956945,12.4000006]},{"bufferView":1,"byteOffset":278748,"componentType":5126,"count":6330,"type":"VEC3"},{"bufferView":2,"byteOffset":235512,"componentType":5123,"count":32202,"type":"SCALAR"},{"bufferView":0,"byteOffset":354708,"componentType":5126,"count":556,"type":"VEC3","min":[1.75,0.959604979,11.1500387],"max":[2.95000005,1.25958586,11.4499998]},{"bufferView":1,"byteOffset":354708,"componentType":5126,"count":556,"type":"VEC3"},{"bufferView":2,"byteOffset":299916,"componentType":5123,"count":1656,"type":"SCALAR"},{"bufferView":0,"byteOffset":361380,"componentType":5126,"count":8040,"type":"VEC3","min":[1.54999995,-0.190374345,10.0001202],"max":[3.04999995,2.40956521,12.6000004]},{"bufferView":1,"byteOffset":361380,"componentType":5126,"count":8040,"type":"VEC3"},{"bufferView":2,"byteOffset":303228,"componentType":5123,"count":24168,"type":"SCALAR"},{"bufferView":0,"byteOffset":457860,"componentType":5126,"count":7507,"type":"VEC3","min":[2.5999999,0.00969125237,10.1999998],"max":[3.04999995,2.2094996,12.4000006]},{"bufferView":1,"byteOffset":457860,"componentType":5126,"count":7507,"type":"VEC3"},{"bufferView":2,"byteOffset":351564,"componentType":5123,"count":39450,"type":"SCALAR"},{"bufferView":0,"byteOffset":547944,"componentType":5126,"count":6330,"type":"VEC3","min":[-2.0999999,0.00962130073,10.1999998],"max":[-0.699999988,2.20956945,12.3998966]},{"bufferView":1,"byteOffset":547944,"componentType":5126,"count":6330,"type":"VEC3"},{"bufferView":2,"byteOffset":430464,"componentType":5123,"count":32202,"type":"SCALAR"},{"bufferView":0,"byteOffset":623904,"componentType":5126,"count":556,"type":"VEC3","min":[-2.95000005,0.959604979,11.1500006],"max":[-1.75,1.25958586,11.4499617]},{"bufferView":1,"byteOffset":623904,"componentType":5126,"count":556,"type":"VEC3"},{"bufferView":2,"byteOffset":494868,"componentType":5123,"count":1656,"type":"SCALAR"},{"bufferView":0,"byteOffset":630576,"componentType":5126,"count":8040,"type":"VEC3","min":[-3.04999995,-0.190374345,10],"max":[-1.54999995,2.40956521,12.5998802]},{"bufferView":1,"byteOffset":630576,"componentType":5126,"count":8040,"type":"VEC3"},{"bufferView":2,"byteOffset":498180,"componentType":5123,"count":24168,"type":"SCALAR"},{"bufferView":0,"byteOffset":727056,"componentType":5126,"count":7507,"type":"VEC3","min":[-3.04999995,0.00969125237,10.1999998],"max":[-2.5999999,2.2094996,12.4000006]},{"bufferView":1,"byteOffset":727056,"componentType":5126,"count":7507,"type":"VEC3"},{"bufferView":2,"byteOffset":546516,"componentType":5123,"count":39450,"type":"SCALAR"},{"bufferView":0,"byteOffset":817140,"componentType":5126,"count":556,"type":"VEC3","min":[1.75,0.959604979,1.1500386],"max":[2.95000005,1.25958586,1.44999969]},{"bufferView":1,"byteOffset":817140,"componentType":5126,"count":556,"type":"VEC3"},{"bufferView":2,"byteOffset":625416,"componentType":5123,"count":1656,"type":"SCALAR"},{"bufferView":0,"byteOffset":823812,"componentType":5126,"count":8040,"type":"VEC3","min":[1.54999995,-0.190374345,0.000120007993],"max":[3.04999995,2.40956521,2.60000014]},{"bufferView":1,"byteOffset":823812,"componentType":5126,"count":8040,"type":"VEC3"},{"bufferView":2,"byteOffset":628728,"componentType":5123,"count":24168,"type":"SCALAR"},{"bufferView":0,"byteOffset":920292,"componentType":5126,"count":7507,"type":"VEC3","min":[2.5999999,0.00969125424,0.19999966],"max":[3.04999995,2.2094996,2.40000033]},{"bufferView":1,"byteOffset":920292,"componentType":5126,"count":7507,"type":"VEC3"},{"bufferView":2,"byteOffset":677064,"componentType":5123,"count":39450,"type":"SCALAR"},{"bufferView":0,"byteOffset":1010376,"componentType":5126,"count":6326,"type":"VEC3","min":[0.699999988,0.0096213026,0.200103611],"max":[2.0999999,2.20956945,2.40000033]},{"bufferView":1,"byteOffset":1010376,"componentType":5126,"count":6326,"type":"VEC3"},{"bufferView":2,"byteOffset":755964,"componentType":5123,"count":32202,"type":"SCALAR"},{"bufferView":0,"byteOffset":1086288,"componentType":5126,"count":556,"type":"VEC3","min":[-2.95000005,0.959604979,1.15000033],"max":[-1.75,1.25958586,1.44996142]},{"bufferView":1,"byteOffset":1086288,"componentType":5126,"count":556,"type":"VEC3"},{"bufferView":2,"byteOffset":820368,"componentType":5123,"count":1656,"type":"SCALAR"},{"bufferView":0,"byteOffset":1092960,"componentType":5126,"count":8040,"type":"VEC3","min":[-3.04999995,-0.190374345,-1.99675569e-07],"max":[-1.54999995,2.40956521,2.59987998]},{"bufferView":1,"byteOffset":1092960,"componentType":5126,"count":8040,"type":"VEC3"},{"bufferView":2,"byteOffset":823680,"componentType":5123,"count":24168,"type":"SCALAR"},{"bufferView":0,"byteOffset":1189440,"componentType":5126,"count":7507,"type":"VEC3","min":[-3.04999995,0.00969125424,0.199999616],"max":[-2.5999999,2.2094996,2.40000033]},{"bufferView":1,"byteOffset":1189440,"componentType":5126,"count":7507,"type":"VEC3"},{"bufferView":2,"byteOffset":872016,"componentType":5123,"count":39450,"type":"SCALAR"},{"bufferView":0,"byteOffset":1279524,"componentType":5126,"count":6326,"type":"VEC3","min":[-2.0999999,0.0096213026,0.199999616],"max":[-0.699999988,2.20956945,2.39989638]},{"bufferView":1,"byteOffset":1279524,"componentType":5126,"count":6326,"type":"VEC3"},{"bufferView":2,"byteOffset":950916,"componentType":5123,"count":32202,"type":"SCALAR"},{"bufferView":0,"byteOffset":1355436,"componentType":5126,"count":12142,"type":"VEC3","min":[-3.29999995,-0.0404394083,13],"max":[3.29999995,1.67530584,15.9000006]},{"bufferView":1,"byteOffset":1355436,"componentType":5126,"count":12142,"type":"VEC3"},{"bufferView":2,"byteOffset":1015320,"componentType":5123,"count":57690,"type":"SCALAR"},{"bufferView":0,"byteOffset":1501140,"componentType":5126,"count":7670,"type":"VEC3","min":[-3.37259626,0.000261049223,-3.61436605],"max":[3.37259626,4.40233231,-0.054299999]},{"bufferView":1,"byteOffset":1501140,"componentType":5126,"count":7670,"type":"VEC3"},{"bufferView":2,"byteOffset":1130700,"componentType":5123,"count":37602,"type":"SCALAR"},{"bufferView":0,"byteOffset":1593180,"componentType":5126,"count":21549,"type":"VEC3","min":[-0.930000007,1.91999996,-4.9000001],"max":[0.930000007,3.77999997,1.50000012]},{"bufferView":1,"byteOffset":1593180,"componentType":5126,"count":21549,"type":"VEC3"},{"bufferView":2,"byteOffset":1205904,"componentType":5123,"count":123684,"type":"SCALAR"}],"materials":[{"pbrMetallicRoughness":{"baseColorFactor":[0.984313726,0.980392158,0.960784316,1],"metallicFactor":0},"doubleSided":true},{"pbrMetallicRoughness":{"baseColorFactor":[0.749019623,0.749019623,0.749019623,1],"metallicFactor":0},"doubleSided":true},{"pbrMetallicRoughness":{"baseColorFactor":[0.627451003,0.627451003,0.627451003,1],"metallicFactor":0},"doubleSided":true},{"pbrMetallicRoughness":{"baseColorFactor":[0.964705884,0.964705884,0.952941179,1],"metallicFactor":0},"doubleSided":true},{"pbrMetallicRoughness":{"baseColorFactor":[0.858823538,0.352941185,0.117647059,1],"metallicFactor":0},"doubleSided":true},{"pbrMetallicRoughness":{"baseColorFactor":[1,0.945098042,0.694117665,1],"metallicFactor":0},"doubleSided":true}],"meshes":[{"primitives":[{"attributes":{"POSITION":0,"NORMAL":1},"mode":4,"indices":2,"material":0}]},{"primitives":[{"attributes":{"POSITION":3,"NORMAL":4},"mode":4,"indices":5,"material":1}]},{"primitives":[{"attributes":{"POSITION":6,"NORMAL":7},"mode":4,"indices":8,"material":0}]},{"primitives":[{"attributes":{"POSITION":9,"NORMAL":10},"mode":4,"indices":11,"material":2}]},{"primitives":[{"attributes":{"POSITION":12,"NORMAL":13},"mode":4,"indices":14,"material":3}]},{"primitives":[{"attributes":{"POSITION":15,"NORMAL":16},"mode":4,"indices":17,"material":0}]},{"primitives":[{"attributes":{"POSITION":18,"NORMAL":19},"mode":4,"indices":20,"material":0}]},{"primitives":[{"attributes":{"POSITION":21,"NORMAL":22},"mode":4,"indices":23,"material":2}]},{"primitives":[{"attributes":{"POSITION":24,"NORMAL":25},"mode":4,"indices":26,"material":3}]},{"primitives":[{"attributes":{"POSITION":27,"NORMAL":28},"mode":4,"indices":29,"material":0}]},{"primitives":[{"attributes":{"POSITION":30,"NORMAL":31},"mode":4,"indices":32,"material":2}]},{"primitives":[{"attributes":{"POSITION":33,"NORMAL":34},"mode":4,"indices":35,"material":3}]},{"primitives":[{"attributes":{"POSITION":36,"NORMAL":37},"mode":4,"indices":38,"material":0}]},{"primitives":[{"attributes":{"POSITION":39,"NORMAL":40},"mode":4,"indices":41,"material":0}]},{"primitives":[{"attributes":{"POSITION":42,"NORMAL":43},"mode":4,"indices":44,"material":2}]},{"primitives":[{"attributes":{"POSITION":45,"NORMAL":46},"mode":4,"indices":47,"material":3}]},{"primitives":[{"attributes":{"POSITION":48,"NORMAL":49},"mode":4,"indices":50,"material":0}]},{"primitives":[{"attributes":{"POSITION":51,"NORMAL":52},"mode":4,"indices":53,"material":0}]},{"primitives":[{"attributes":{"POSITION":54,"NORMAL":55},"mode":4,"indices":56,"material":4}]},{"primitives":[{"attributes":{"POSITION":57,"NORMAL":58},"mode":4,"indices":59,"material":4}]},{"primitives":[{"attributes":{"POSITION":60,"NORMAL":61},"mode":4,"indices":62,"material":5}]}],"nodes":[{"mesh":0},{"mesh":1},{"mesh":2},{"mesh":3},{"mesh":4},{"mesh":5},{"mesh":6},{"mesh":7},{"mesh":8},{"mesh":9},{"mesh":10},{"mesh":11},{"mesh":12},{"mesh":13},{"mesh":14},{"mesh":15},{"mesh":16},{"mesh":17},{"mesh":18},{"mesh":19},{"mesh":20},{"name":"Protocar body v55","children":[0]},{"name":"fm_2016_08_08_03_26_38_5331 v1","children":[1]},{"name":"FRONT Wheel attach FOR FRONT v6","children":[2]},{"name":"Axel v2","children":[3]},{"name":"Main Wheel v3","children":[4]},{"name":"Wheel Cap v3","children":[5]},{"name":"FRONT Wheel attach FOR FRONT v6","children":[6]},{"name":"Axel v2","children":[7]},{"name":"Main Wheel v3","children":[8]},{"name":"Wheel Cap v3","children":[9]},{"name":"Axel v2","children":[10]},{"name":"Main Wheel v3","children":[11]},{"name":"Wheel Cap v3","children":[12]},{"name":"BACK Wheel attach FOR BACK v5","children":[13]},{"name":"Axel v2","children":[14]},{"name":"Main Wheel v3","children":[15]},{"name":"Wheel Cap v3","children":[16]},{"name":"BACK Wheel attach FOR BACK v5","children":[17]},{"name":"Front Wing v13","children":[18]},{"name":"Back Wing v5","children":[19]},{"name":"fm_2016_08_08_03_25_30_62697 v2","children":[20]}],"scenes":[{"nodes":[21,22,23,24,25,26,27,28,29,30,31,32,33,34,35,36,37,38,39,40,41]}]}