{"buffers":[{"uri":"Resivoir.bin","byteLength":88056}],"asset":{"version":"2.0","generator":"gltfpack 0.16"},"bufferViews":[{"buffer":0,"byteOffset":0,"byteLength":33936,"byteStride":12,"target":34962},{"buffer":0,"byteOffset":33936,"byteLength":33936,"byteStride":12,"target":34962},{"buffer":0,"byteOffset":67872,"byteLength":20184,"target":34963}],"accessors":[{"bufferView":0,"byteOffset":0,"componentType":5126,"count":2828,"type":"VEC3","min":[-14.70646,-9.92666149,-15.0520153],"max":[8.54835224,0.0733384863,10.8249426]},{"bufferView":1,"byteOffset":0,"componentType":5126,"count":2828,"type":"VEC3"},{"bufferView":2,"byteOffset":0,"componentType":5123,"count":10092,"type":"SCALAR"}],"materials":[{"pbrMetallicRoughness":{"baseColorFactor":[0.627451003,0.627451003,0.627451003,1],"metallicFactor":0},"doubleSided":true}],"meshes":[{"primitives":[{"attributes":{"POSITION":0,"NORMAL":1},"mode":4,"indices":2,"material":0}]}],"nodes":[{"mesh":0},{"children":[0]}],"scenes":[{"nodes":[1]}]}